<svg width="512" height="512" viewBox="0 0 512 512" fill="none" xmlns="http://www.w3.org/2000/svg">
<g id="skull">
<g id="skull_2">
<path id="Vector" d="M479.373 353.103C494.627 320.995 503.172 285.085 503.172 247.172C503.172 110.664 392.51 0 256 0C119.49 0 8.828 110.664 8.828 247.172C8.828 285.085 17.375 320.995 32.627 353.103L114.759 388.413L167.724 512H344.276L397.242 388.414L479.373 353.103Z" fill="#C9E3F7"/>
<path id="Vector_2" d="M479.373 353.103C494.627 320.995 503.172 285.085 503.172 247.172C503.172 110.664 392.51 0 256 0C256 56.497 256 512 256 512H344.276L397.242 388.414L479.373 353.103Z" fill="#AED5F3"/>
<path id="Vector_3" d="M218.672 400.215C227.365 408.381 241.034 407.952 249.2 399.258L256.001 392.018L262.802 399.258C270.968 407.951 284.634 408.38 293.328 400.215C302.023 392.051 302.45 378.383 294.285 369.689L256 332.505L217.717 369.687C209.551 378.382 209.98 392.049 218.672 400.215Z" fill="white"/>
<path id="Vector_4" d="M361.931 335.449C400.934 335.449 432.552 303.831 432.552 264.828C432.552 225.825 400.934 194.207 361.931 194.207C322.928 194.207 291.31 225.825 291.31 264.828C291.31 303.831 322.928 335.449 361.931 335.449Z" fill="white"/>
<path id="Vector_5" d="M150.069 335.449C189.072 335.449 220.69 303.831 220.69 264.828C220.69 225.825 189.072 194.207 150.069 194.207C111.066 194.207 79.448 225.825 79.448 264.828C79.448 303.831 111.066 335.449 150.069 335.449Z" fill="white"/>
</g>
</g>
</svg>
